<svg aria-hidden="true" style="position: absolute; width: 0; height: 0; overflow: hidden;" version="1.1" xmlns="http://www.w3.org/2000/svg" xmlns:xlink="http://www.w3.org/1999/xlink">
<defs>
<symbol id="icon-mail-1" viewBox="0 0 21 32">
<path fill="#f4ab00" style="fill: var(--color1, #f4ab00)" d="M17.835 0.148h-14.91c-1.584 0-2.796 2.3-2.796 5.307v21.23c0 3.007 1.211 5.307 2.796 5.307h14.91c1.584 0 2.796-2.3 2.796-5.307v-21.23c0-3.007-1.211-5.307-2.796-5.307zM2.925 3.686h14.91c0.373 0 0.652 0.354 0.839 1.061l-8.294 10.969-8.294-10.969c0.186-0.708 0.466-1.062 0.839-1.062h-0zM17.835 28.454h-14.91c-0.559 0-0.932-0.708-0.932-1.769v-17.868l7.828 10.438c0.186 0.177 0.373 0.354 0.559 0.354s0.373-0.177 0.559-0.354l7.828-10.438v17.868c0 1.061-0.373 1.769-0.932 1.769v0z"></path>
</symbol>
<symbol id="icon-location" viewBox="0 0 21 32">
<path fill="#f4ab00" style="fill: var(--color1, #f4ab00)" d="M0 11.98c0-3.312 1.006-6.135 3.018-8.471s4.467-3.492 7.366-3.471c2.898 0.021 5.354 1.178 7.366 3.471s3.018 5.116 3.018 8.471c0 1.656-0.258 3.354-0.775 5.095s-1.301 3.503-2.354 5.286-1.985 3.28-2.797 4.49c-0.812 1.21-1.828 2.622-3.046 4.235-0.369 0.531-0.822 0.796-1.357 0.796h-0.111c-0.535 0-0.988-0.265-1.357-0.796-1.218-1.635-2.234-3.047-3.046-4.235s-1.745-2.686-2.797-4.49-1.837-3.567-2.354-5.286c-0.517-1.72-0.775-3.418-0.775-5.095zM1.745 11.98c0 1.529 0.258 3.121 0.775 4.777s1.301 3.365 2.354 5.127c1.052 1.762 1.929 3.121 2.631 4.076s1.624 2.229 2.769 3.821h0.055c0.037 0.042 0.055 0.085 0.055 0.127l0.111-0.127c1.145-1.55 2.068-2.823 2.769-3.821s1.569-2.356 2.603-4.076c1.034-1.72 1.828-3.429 2.382-5.127s0.821-3.291 0.803-4.777c0-2.739-0.849-5.085-2.547-7.038s-3.738-2.919-6.12-2.898c-2.381 0.021-4.421 0.987-6.12 2.898s-2.538 4.257-2.52 7.038zM5.206 11.725c0-1.656 0.498-3.068 1.495-4.235s2.224-1.741 3.683-1.72c1.458 0.021 2.686 0.594 3.683 1.72s1.505 2.537 1.523 4.235c0.018 1.698-0.489 3.11-1.523 4.235s-2.261 1.709-3.683 1.751-2.649-0.541-3.683-1.751c-1.034-1.21-1.532-2.622-1.495-4.235zM6.064 11.725c0 1.38 0.425 2.558 1.274 3.535s1.865 1.454 3.046 1.433c1.181-0.021 2.197-0.499 3.046-1.433s1.274-2.112 1.274-3.535c0-1.422-0.425-2.59-1.274-3.503s-1.864-1.401-3.046-1.465c-1.181-0.064-2.197 0.425-3.046 1.465s-1.274 2.208-1.274 3.503z"></path>
</symbol>
<symbol id="icon-phone-1" viewBox="0 0 21 32">
<path fill="#f4ab00" style="fill: var(--color1, #f4ab00)" d="M17.32 19.387c-0.808-0.139-1.615-0.418-2.333-0.836-0.987-0.557-2.064-0.139-2.872 0.975l-0.628 0.975c-1.615-1.672-3.051-3.762-4.128-6.409l0.628-0.975c0.718-1.115 0.987-2.926 0.628-4.458-0.269-1.115-0.449-2.368-0.538-3.622-0.179-2.090-1.346-3.622-2.692-3.622h-2.692c-0.090 0-0.179 0-0.269 0-0.718 0.139-1.346 0.697-1.795 1.533s-0.628 1.95-0.628 3.065c0.269 4.458 1.346 8.916 2.872 12.678 1.436 3.483 3.41 6.548 5.654 8.777 2.423 2.508 5.295 4.040 8.166 4.458 0.090 0 0.179 0 0.269 0 0.718 0 1.436-0.418 1.885-1.254s0.808-1.811 0.808-2.926v-4.179c0-2.090-0.987-3.901-2.333-4.18v-0zM17.858 23.566v4.18c0 0.418-0.090 0.697-0.269 0.975s-0.359 0.418-0.718 0.418c-2.602-0.418-5.115-1.811-7.359-4.040-2.064-1.95-3.769-4.737-5.115-7.941-1.436-3.483-2.333-7.384-2.602-11.424 0-0.418 0.090-0.697 0.179-0.975 0.179-0.279 0.449-0.557 0.718-0.557h2.692c0.449 0 0.808 0.557 0.897 1.254 0.090 1.393 0.359 2.926 0.718 4.18 0.090 0.557 0 1.115-0.179 1.532l-1.167 1.672c-0.269 0.418-0.359 1.115-0.179 1.672 1.346 3.762 3.32 6.827 5.743 8.916 0.359 0.279 0.808 0.279 1.077-0.279l1.167-1.811c0.269-0.418 0.628-0.557 0.987-0.279 0.897 0.557 1.795 0.836 2.692 1.115 0.359 0.139 0.718 0.697 0.718 1.393zM12.653 0.021c-0.449-0.139-0.897 0.418-0.987 1.254-0.090 0.697 0.269 1.393 0.808 1.533 3.32 0.557 5.923 4.598 6.372 9.892 0.090 0.697 0.449 1.254 0.897 1.254h0.090c0.449-0.139 0.808-0.836 0.808-1.532-0.538-6.548-3.859-11.703-7.987-12.399h-0zM15.166 12.699c0.090 0.697 0.449 1.115 0.897 1.115 0.090 0 0.090 0 0.179 0 0.449-0.139 0.808-0.836 0.718-1.672-0.449-3.344-2.064-5.991-4.218-6.548-0.449-0.139-0.987 0.279-1.077 1.115s0.179 1.532 0.718 1.672c1.436 0.418 2.513 2.090 2.782 4.319z"></path>
</symbol>
<symbol id="icon-instagramm" viewBox="0 0 28 32">
<path d="M18.321 15.938c0-1.461-0.439-2.712-1.316-3.752s-1.957-1.56-3.241-1.56c-1.283 0-2.364 0.52-3.241 1.56s-1.326 2.291-1.348 3.752c-0.021 1.461 0.428 2.712 1.348 3.752s2 1.56 3.241 1.56c1.241 0 2.321-0.52 3.241-1.56s1.358-2.291 1.316-3.752zM20.792 15.938c0 2.254-0.684 4.186-2.054 5.796s-3.027 2.402-4.973 2.378c-1.947-0.025-3.615-0.817-5.005-2.378s-2.075-3.492-2.053-5.796 0.706-4.235 2.053-5.796c1.348-1.56 3.016-2.353 5.005-2.378s3.647 0.768 4.973 2.378c1.326 1.61 2.011 3.542 2.054 5.796zM22.749 7.43c0 0.52-0.16 0.966-0.481 1.337s-0.716 0.557-1.187 0.557c-0.471 0-0.856-0.186-1.155-0.557s-0.46-0.817-0.481-1.337c-0.021-0.52 0.139-0.966 0.481-1.337s0.727-0.557 1.155-0.557c0.428 0 0.824 0.186 1.187 0.557s0.524 0.817 0.481 1.337zM13.765 2.861c-0.086 0-0.545 0-1.38 0s-1.465 0-1.893 0c-0.428 0-1.005 0.025-1.733 0.074s-1.337 0.111-1.829 0.186c-0.492 0.074-0.92 0.211-1.283 0.409-0.599 0.272-1.123 0.669-1.572 1.189s-0.802 1.127-1.059 1.82c-0.128 0.396-0.235 0.892-0.321 1.486s-0.15 1.313-0.192 2.155-0.053 1.498-0.032 1.969c0.021 0.471 0.021 1.201 0 2.192s-0.021 1.523 0 1.598 0.021 0.607 0 1.598-0.021 1.721 0 2.192c0.021 0.471 0.032 1.127 0.032 1.969s0.064 1.56 0.192 2.155c0.128 0.594 0.235 1.090 0.321 1.486 0.257 0.694 0.61 1.3 1.059 1.82s0.973 0.916 1.572 1.189c0.342 0.149 0.77 0.285 1.283 0.409s1.123 0.186 1.829 0.186 1.283 0.025 1.733 0.074c0.449 0.049 1.080 0.049 1.893 0s1.273-0.050 1.38 0c0.107 0.049 0.556 0.049 1.348 0s1.422-0.050 1.893 0c0.471 0.049 1.048 0.025 1.732-0.074s1.305-0.161 1.861-0.186c0.556-0.025 0.973-0.161 1.251-0.409 0.599-0.272 1.134-0.669 1.604-1.189s0.813-1.127 1.027-1.82c0.128-0.396 0.235-0.892 0.321-1.486s0.15-1.313 0.192-2.155c0.043-0.842 0.054-1.498 0.032-1.969s-0.021-1.201 0-2.192 0.021-1.523 0-1.598c-0.021-0.074-0.021-0.607 0-1.598s0.021-1.721 0-2.192-0.032-1.127-0.032-1.969c0-0.842-0.064-1.56-0.192-2.155s-0.235-1.090-0.321-1.486c-0.235-0.694-0.578-1.3-1.027-1.82s-0.984-0.916-1.604-1.189c-0.342-0.149-0.759-0.285-1.251-0.409s-1.112-0.186-1.861-0.186-1.326-0.025-1.733-0.074c-0.407-0.050-1.038-0.050-1.893 0s-1.305 0.050-1.348 0zM27.497 15.938c0 3.17-0.032 5.362-0.096 6.576-0.107 2.873-0.845 5.102-2.214 6.687s-3.284 2.44-5.743 2.564c-1.070 0.074-2.963 0.111-5.679 0.111s-4.61-0.037-5.679-0.111c-2.481-0.149-4.406-1.003-5.775-2.564s-2.107-3.79-2.214-6.687c-0.064-1.214-0.096-3.406-0.096-6.576s0.032-5.362 0.096-6.576c0.107-2.873 0.845-5.102 2.214-6.687s3.294-2.44 5.775-2.563c1.048-0.074 2.941-0.111 5.679-0.111s4.631 0.037 5.679 0.111c2.481 0.149 4.396 1.003 5.743 2.563s2.086 3.789 2.214 6.687c0.064 1.214 0.096 3.406 0.096 6.576z"></path>
</symbol>
<symbol id="icon-cross" viewBox="0 0 32 32">
<path fill="#ed6436" style="fill: var(--color2, #ed6436)" d="M18.99 15.769l11.814-11.814c0.891-0.892 0.891-2.229 0-3.121s-2.229-0.892-3.121 0l-11.814 11.814-11.814-11.814c-0.892-0.892-2.229-0.892-3.121 0s-0.892 2.229 0 3.121l11.814 11.814-11.814 11.814c-0.892 0.892-0.892 2.229 0 3.121 0.446 0.446 0.892 0.669 1.56 0.669s1.115-0.223 1.56-0.669l11.814-11.814 11.814 11.814c0.446 0.446 1.115 0.669 1.561 0.669s1.114-0.223 1.56-0.669c0.892-0.892 0.892-2.229 0-3.121l-11.814-11.814z"></path>
</symbol>
<symbol id="icon-optimization" viewBox="0 0 32 32">
<path fill="none" stroke="#f4ab00" style="stroke: var(--color1, #f4ab00)" stroke-linejoin="miter" stroke-linecap="butt" stroke-miterlimit="10" stroke-width="1.1636" d="M2.5 20.5l3-20h21l3 20"></path>
<path fill="none" stroke="#f4ab00" style="stroke: var(--color1, #f4ab00)" stroke-linejoin="miter" stroke-linecap="butt" stroke-miterlimit="10" stroke-width="1.1636" d="M10.5 20.5c0 3.038 2.463 5.5 5.5 5.5s5.5-2.462 5.5-5.5h8v11h-27v-11h8z"></path>
<path fill="none" stroke="#f4ab00" style="stroke: var(--color1, #f4ab00)" stroke-linejoin="bevel" stroke-linecap="butt" stroke-miterlimit="10" stroke-width="1.1636" d="M11.999 11l4-4 4 4"></path>
<path fill="none" stroke="#f4ab00" style="stroke: var(--color1, #f4ab00)" stroke-linejoin="miter" stroke-linecap="butt" stroke-miterlimit="10" stroke-width="1.1636" d="M15.999 7v10"></path>
</symbol>
<symbol id="icon-keyword-analysis" viewBox="0 0 32 32">
<path fill="none" stroke="#f4ab00" style="stroke: var(--color1, #f4ab00)" stroke-linejoin="miter" stroke-linecap="butt" stroke-miterlimit="10" stroke-width="1.1636" d="M9 13.033l-8 3.467 15 6 15-6-8-3.467"></path>
<path fill="none" stroke="#f4ab00" style="stroke: var(--color1, #f4ab00)" stroke-linejoin="miter" stroke-linecap="butt" stroke-miterlimit="10" stroke-width="1.1636" d="M9 19.533l-8 3.467 15 6 15-6-8-3.467"></path>
<path fill="none" stroke="#f4ab00" style="stroke: var(--color1, #f4ab00)" stroke-linejoin="miter" stroke-linecap="butt" stroke-miterlimit="10" stroke-width="1.1636" d="M16 16l15-6-15-6.5-15 6.5 15 6z"></path>
</symbol>
<symbol id="icon-business-analysis" viewBox="0 0 32 32">
<path fill="none" stroke="#f4ab00" style="stroke: var(--color1, #f4ab00)" stroke-linejoin="miter" stroke-linecap="butt" stroke-miterlimit="10" stroke-width="1.1636" d="M11 14.5h-6v17h6v-17z"></path>
<path fill="none" stroke="#f4ab00" style="stroke: var(--color1, #f4ab00)" stroke-linejoin="miter" stroke-linecap="butt" stroke-miterlimit="10" stroke-width="1.1636" d="M27 19.5h-6v12h6v-12z"></path>
<path fill="none" stroke="#f4ab00" style="stroke: var(--color1, #f4ab00)" stroke-linejoin="miter" stroke-linecap="butt" stroke-miterlimit="10" stroke-width="1.1636" d="M19 0.5h-6v31h6v-31z"></path>
</symbol>
<symbol id="icon-check-mark-circle" viewBox="0 0 32 32">
<path fill="#2c1258" style="fill: var(--color3, #2c1258)" d="M30.205 13.307c-0.857 0-1.429 0.579-1.429 1.447v1.303c0 7.237-5.716 13.027-12.86 13.027s-12.86-5.79-12.86-13.027c0-7.237 5.716-13.027 12.86-13.027 1.858 0 3.572 0.434 5.287 1.158 0.714 0.289 1.572 0 1.858-0.724s0-1.592-0.714-1.882c-2.001-0.869-4.144-1.448-6.43-1.448-8.716 0-15.718 7.093-15.718 15.922s7.002 15.922 15.718 15.922c8.717 0 15.718-7.093 15.718-15.922v-1.303c0-0.868-0.572-1.447-1.429-1.447v0zM12.63 13.597c-0.572-0.579-1.429-0.579-2.001 0s-0.572 1.447 0 2.026l4.287 4.342c0.286 0.29 0.572 0.434 1 0.434s0.714-0.145 1-0.434l14.289-14.475c0.572-0.579 0.572-1.447 0-2.026s-1.429-0.579-2.001 0l-13.289 13.462-3.287-3.329z"></path>
</symbol>
<symbol id="icon-loadspeaker" viewBox="0 0 32 32">
<path d="M0 13.955c0-1.401 0.382-2.579 1.146-3.535s1.709-1.433 2.834-1.433h9.203c1.337 0 2.601-0.478 3.789-1.433s2.208-2.282 3.057-3.981h0.064c1.231-2.357 2.824-3.535 4.777-3.535 2.166 0 3.864 1.391 5.095 4.172s1.858 6.029 1.879 9.744c0.021 3.715-0.605 6.974-1.879 9.776s-2.972 4.193-5.095 4.172c-1.953 0-3.545-1.178-4.777-3.535h-0.064c-1.656-3.291-3.768-5.074-6.337-5.35-0.127 0.042-0.212 0.064-0.255 0.064v0.064c-0.127 0.043-0.234 0.117-0.319 0.223-0.042 0.043-0.064 0.085-0.064 0.127-0.085 0.128-0.127 0.255-0.127 0.382v7.038c0 0.17 0.17 0.446 0.51 0.828s0.509 0.764 0.509 1.146v1.019c0 0.531-0.202 0.987-0.605 1.369s-0.87 0.584-1.401 0.605h-3.981c-0.531 0-0.998-0.202-1.401-0.605s-0.594-0.86-0.573-1.369v-8.98c0-0.531-0.202-0.998-0.605-1.401s-0.87-0.594-1.401-0.573c-1.125 0-2.070-0.478-2.834-1.433s-1.146-2.144-1.146-3.567zM2.006 13.955c0 0.849 0.191 1.56 0.573 2.134s0.849 0.86 1.401 0.86h6.974c-0.658-0.786-0.987-1.783-0.987-2.993s0.329-2.197 0.987-2.962h-6.974c-0.531 0-0.998 0.287-1.401 0.86s-0.594 1.274-0.573 2.102zM7.388 18.954c0.382 0.616 0.573 1.274 0.573 1.974v8.98h3.981v-0.892l-0.127-0.127c-0.573-0.701-0.86-1.359-0.86-1.974v-6.974c0-0.34 0.064-0.669 0.191-0.987h-3.758zM10.955 13.955c0 0.849 0.191 1.56 0.573 2.134s0.849 0.86 1.401 0.86h0.255c1.826 0 3.545 0.669 5.159 2.006-0.276-1.571-0.414-3.238-0.414-5 0-1.698 0.138-3.354 0.414-4.968-1.613 1.338-3.333 2.006-5.159 2.006h-0.255c-0.531 0-0.998 0.287-1.401 0.86s-0.594 1.274-0.573 2.102zM19.903 13.955c0 0.998 0.064 1.996 0.191 2.993h2.802c0.531 0 0.998-0.287 1.401-0.86s0.594-1.284 0.573-2.133-0.212-1.55-0.573-2.102c-0.361-0.552-0.828-0.839-1.401-0.86h-2.802c-0.127 0.998-0.191 1.985-0.191 2.962zM20.349 18.954c0.403 2.059 1.008 3.736 1.815 5.031s1.709 1.932 2.707 1.911c1.38 0 2.558-1.157 3.535-3.471s1.454-5.138 1.433-8.471c-0.021-3.333-0.499-6.146-1.433-8.439s-2.112-3.45-3.535-3.471c-0.998 0-1.9 0.637-2.707 1.911s-1.412 2.951-1.815 5.031h2.548c1.104 0 2.049 0.478 2.834 1.433s1.168 2.134 1.146 3.535c-0.021 1.401-0.403 2.59-1.146 3.567s-1.688 1.454-2.834 1.433h-2.548z"></path>
</symbol>
<symbol id="icon-media" viewBox="0 0 32 32">
<path d="M24.808 20.4c-1.592 0-3.040 0.724-4.053 1.737l-7.672-4.487c0-0.579 0.145-1.013 0.145-1.592s-0.145-1.013-0.29-1.592l7.672-4.487c1.158 1.013 2.605 1.737 4.198 1.737 3.184 0 5.79-2.605 5.79-5.79s-2.605-5.79-5.79-5.79c-3.184 0-5.79 2.605-5.79 5.79 0 0.579 0.145 1.013 0.29 1.592l-7.816 4.487c-1.013-1.013-2.461-1.737-4.053-1.737-3.184 0-5.79 2.606-5.79 5.79s2.605 5.79 5.79 5.79c1.592 0 3.040-0.724 4.053-1.737l7.672 4.487c0 0.579-0.145 1.013-0.145 1.592 0 3.184 2.605 5.79 5.79 5.79s5.79-2.605 5.79-5.79c0-3.184-2.605-5.79-5.79-5.79v0zM24.808 3.031c1.592 0 2.895 1.303 2.895 2.895s-1.303 2.895-2.895 2.895-2.895-1.303-2.895-2.895c0-1.592 1.303-2.895 2.895-2.895zM7.438 18.953c-1.592 0-2.895-1.303-2.895-2.895s1.303-2.895 2.895-2.895 2.895 1.303 2.895 2.895c0 1.592-1.303 2.895-2.895 2.895zM24.808 29.085c-1.592 0-2.895-1.303-2.895-2.895 0-0.579 0.145-1.013 0.434-1.447 0.434-0.868 1.447-1.447 2.461-1.447 1.592 0 2.895 1.303 2.895 2.895s-1.303 2.895-2.895 2.895v0z"></path>
</symbol>
<symbol id="icon-computer" viewBox="0 0 32 32">
<path d="M0 23.922v-19.903c0-0.828 0.287-1.529 0.86-2.102s1.284-0.87 2.134-0.892h25.858c0.828 0 1.539 0.297 2.134 0.892s0.881 1.295 0.86 2.102v19.903c0 0.828-0.287 1.528-0.86 2.102s-1.284 0.87-2.134 0.892h-9.936v1.178l6.21 0.796c0.488 0.127 0.732 0.467 0.732 1.019 0 0.276-0.085 0.51-0.255 0.701s-0.414 0.287-0.732 0.287h-17.897c-0.297 0-0.541-0.096-0.732-0.287s-0.276-0.425-0.255-0.701c0-0.552 0.244-0.892 0.732-1.019l6.21-0.796v-1.178h-9.935c-0.828 0-1.539-0.297-2.134-0.892s-0.881-1.295-0.86-2.102zM2.006 23.922c0 0.297 0.085 0.531 0.255 0.701s0.414 0.265 0.732 0.287h25.858c0.297 0 0.541-0.096 0.732-0.287s0.276-0.425 0.255-0.701v-19.903c0-0.297-0.085-0.531-0.255-0.701s-0.414-0.265-0.732-0.287h-25.858c-0.297 0-0.541 0.096-0.732 0.287s-0.276 0.425-0.255 0.701v19.903zM3.981 19.942v-13.916c0-0.297 0.096-0.541 0.287-0.732s0.425-0.287 0.701-0.287h21.909c0.276 0 0.509 0.096 0.701 0.287s0.287 0.435 0.287 0.732v13.916c0 0.297-0.096 0.531-0.287 0.701s-0.425 0.265-0.701 0.287h-21.909c-0.276 0-0.51-0.096-0.701-0.287s-0.287-0.425-0.287-0.701zM4.968 19.942h21.909v-13.916h-21.909v13.916z"></path>
</symbol>
<symbol id="icon-mobile" viewBox="0 0 32 32">
<path d="M22.412 0.318h-12.601c-1.734 0-3.141 1.407-3.141 3.141v25.187c0 1.736 1.407 3.142 3.141 3.142h12.599c1.736 0 3.142-1.407 3.142-3.141v-25.188c0-1.734-1.407-3.141-3.141-3.141l0 0zM16.111 30.214c-1.086 0-1.967-0.703-1.967-1.573s0.881-1.573 1.967-1.573c1.086 0 1.967 0.703 1.967 1.573s-0.881 1.573-1.967 1.573zM22.405 25.493h-12.588v-22.029h12.588v22.029z"></path>
</symbol>
<symbol id="icon-at" viewBox="0 0 32 32">
<path d="M23.726 19.642c0 1.387 0.395 1.94 1.427 1.94 2.3 0 3.765-2.931 3.765-7.805 0-7.45-5.429-11.017-12.207-11.017-6.973 0-13.315 4.676-13.315 13.513 0 8.441 5.548 13.038 14.068 13.038 2.893 0 4.835-0.317 7.805-1.308l0.637 2.654c-2.933 0.953-6.067 1.228-8.482 1.228-11.175 0-17.161-6.142-17.161-15.614 0-9.551 6.937-16.050 16.487-16.050 9.947 0 15.216 5.944 15.216 13.236 0 6.182-1.94 10.898-8.043 10.898-2.776 0-4.597-1.11-4.835-3.568-0.713 2.734-2.616 3.568-5.193 3.568-3.448 0-6.341-2.657-6.341-8.005 0-5.389 2.538-8.718 7.095-8.718 2.417 0 3.923 0.951 4.594 2.457l1.151-2.1h3.329v11.652h0.003zM18.853 14.411c0-2.178-1.627-3.091-2.974-3.091-1.466 0-3.089 1.187-3.089 4.676 0 2.774 1.229 4.319 3.089 4.319 1.308 0 2.974-0.832 2.974-3.131v-2.774z"></path>
</symbol>
<symbol id="icon-conversion-better-website" viewBox="0 0 32 32">
<path fill="none" stroke="#f4ab00" style="stroke: var(--color1, #f4ab00)" stroke-linejoin="miter" stroke-linecap="butt" stroke-miterlimit="10" stroke-width="1.28" d="M16 0.444c8.592 0 15.557 6.964 15.556 15.556 0 8.592-6.965 15.558-15.557 15.557-8.592 0-15.556-6.964-15.556-15.556-0.002-8.592 6.963-15.557 15.556-15.557z"></path>
<path fill="none" stroke="#f4ab00" style="stroke: var(--color1, #f4ab00)" stroke-linejoin="miter" stroke-linecap="butt" stroke-miterlimit="10" stroke-width="1.28" d="M16 0.5v31"></path>
<path fill="none" stroke="#f4ab00" style="stroke: var(--color1, #f4ab00)" stroke-linejoin="miter" stroke-linecap="butt" stroke-miterlimit="10" stroke-width="1.28" d="M31.5 16h-31"></path>
<path fill="none" stroke="#f4ab00" style="stroke: var(--color1, #f4ab00)" stroke-linejoin="miter" stroke-linecap="butt" stroke-miterlimit="10" stroke-width="1.28" d="M15 0.5c0 0-7 5.5-7 15.5s7 15.5 7 15.5"></path>
<path fill="none" stroke="#f4ab00" style="stroke: var(--color1, #f4ab00)" stroke-linejoin="miter" stroke-linecap="butt" stroke-miterlimit="10" stroke-width="1.28" d="M17 0.5c0 0 7 5.5 7 15.5s-7 15.5-7 15.5"></path>
<path fill="none" stroke="#f4ab00" style="stroke: var(--color1, #f4ab00)" stroke-linejoin="miter" stroke-linecap="butt" stroke-miterlimit="10" stroke-width="1.28" d="M4 6c0 0 2.5 5 12 5s12-5 12-5"></path>
<path fill="none" stroke="#f4ab00" style="stroke: var(--color1, #f4ab00)" stroke-linejoin="miter" stroke-linecap="butt" stroke-miterlimit="10" stroke-width="1.28" d="M4 26c0 0 2.5-5 12-5s12 5 12 5"></path>
</symbol>
<symbol id="icon-conversion-split-testing" viewBox="0 0 32 32">
<path fill="none" stroke="#f4ab00" style="stroke: var(--color1, #f4ab00)" stroke-linejoin="miter" stroke-linecap="butt" stroke-miterlimit="10" stroke-width="1.28" d="M14.5 26.5l7.5-21h0.5l7.5 21"></path>
<path fill="none" stroke="#f4ab00" style="stroke: var(--color1, #f4ab00)" stroke-linejoin="miter" stroke-linecap="butt" stroke-miterlimit="10" stroke-width="1.28" d="M17 19.5h10.5"></path>
<path fill="none" stroke="#f4ab00" style="stroke: var(--color1, #f4ab00)" stroke-linejoin="bevel" stroke-linecap="butt" stroke-miterlimit="10" stroke-width="1.28" d="M2.5 27.5l3.5 3.5 3.5-3.5"></path>
<path fill="none" stroke="#f4ab00" style="stroke: var(--color1, #f4ab00)" stroke-linejoin="bevel" stroke-linecap="butt" stroke-miterlimit="10" stroke-width="1.28" d="M9.5 4.5l-3.5-3.5-3.5 3.5"></path>
<path fill="none" stroke="#f4ab00" style="stroke: var(--color1, #f4ab00)" stroke-linejoin="miter" stroke-linecap="butt" stroke-miterlimit="10" stroke-width="1.28" d="M6 31v-30"></path>
</symbol>
<symbol id="icon-conversion-user-recordings" viewBox="0 0 32 32">
<path fill="none" stroke="#f4ab00" style="stroke: var(--color1, #f4ab00)" stroke-linejoin="bevel" stroke-linecap="butt" stroke-miterlimit="10" stroke-width="1.28" d="M20 18.5l-4 4-4-4"></path>
<path fill="none" stroke="#f4ab00" style="stroke: var(--color1, #f4ab00)" stroke-linejoin="miter" stroke-linecap="butt" stroke-miterlimit="10" stroke-width="1.28" d="M16 22.5v-10"></path>
<path fill="none" stroke="#f4ab00" style="stroke: var(--color1, #f4ab00)" stroke-linejoin="miter" stroke-linecap="butt" stroke-miterlimit="10" stroke-width="1.28" d="M11.5 4h-6.5v27.5h22v-27.5h-6.5"></path>
<path fill="none" stroke="#f4ab00" style="stroke: var(--color1, #f4ab00)" stroke-linejoin="miter" stroke-linecap="butt" stroke-miterlimit="10" stroke-width="1.28" d="M18 2.5v-2h-4v2h-2l-1 4h10l-1-4h-2z"></path>
</symbol>
<symbol id="icon-conversion-techniques" viewBox="0 0 32 32">
<path fill="none" stroke="#f4ab00" style="stroke: var(--color1, #f4ab00)" stroke-linejoin="bevel" stroke-linecap="butt" stroke-miterlimit="10" stroke-width="1.28" d="M6.5 16.5l6 6 12-12"></path>
<path fill="#f4ab00" style="fill: var(--color1, #f4ab00)" d="M16 0.5v0zM31.5 16v0zM16 31.499v0zM1 16c0-1.97 0.388-3.92 1.142-5.74l-0.924-0.383c-0.804 1.941-1.218 4.022-1.218 6.123h1zM2.142 10.26c0.754-1.82 1.859-3.473 3.252-4.866l-0.707-0.707c-1.486 1.486-2.664 3.249-3.468 5.191l0.924 0.383zM5.394 5.394c1.393-1.393 3.046-2.498 4.866-3.252l-0.383-0.924c-1.941 0.804-3.705 1.983-5.191 3.468l0.707 0.707zM10.26 2.142c1.82-0.754 3.77-1.142 5.74-1.142v-1c-2.101 0-4.182 0.414-6.123 1.218l0.383 0.924zM16 1c1.97 0 3.92 0.388 5.74 1.142l0.383-0.924c-1.941-0.804-4.022-1.218-6.123-1.218v1zM21.74 2.142c1.82 0.754 3.473 1.859 4.866 3.251l0.707-0.707c-1.486-1.486-3.249-2.664-5.191-3.468l-0.383 0.924zM26.606 5.394c1.393 1.393 2.498 3.046 3.251 4.866l0.924-0.383c-0.804-1.941-1.983-3.705-3.468-5.191l-0.707 0.707zM29.858 10.26c0.754 1.82 1.142 3.77 1.142 5.74h1c0-2.101-0.414-4.182-1.218-6.123l-0.924 0.383zM31 16c0 1.97-0.388 3.92-1.142 5.74l0.924 0.383c0.804-1.941 1.218-4.022 1.218-6.123h-1zM29.858 21.74c-0.754 1.82-1.859 3.473-3.251 4.866l0.707 0.707c1.486-1.486 2.664-3.249 3.468-5.191l-0.924-0.383zM26.606 26.606c-1.393 1.393-3.046 2.498-4.866 3.251l0.383 0.924c1.941-0.804 3.705-1.983 5.191-3.468l-0.707-0.707zM21.74 29.858c-1.82 0.754-3.77 1.142-5.74 1.142v1c2.101 0 4.182-0.414 6.123-1.218l-0.383-0.924zM16 31c-1.97 0-3.92-0.388-5.74-1.142l-0.383 0.924c1.941 0.804 4.022 1.218 6.123 1.218v-1zM10.26 29.858c-1.82-0.754-3.473-1.859-4.866-3.251l-0.707 0.707c1.486 1.486 3.249 2.664 5.191 3.468l0.383-0.924zM5.394 26.606c-1.393-1.393-2.498-3.046-3.252-4.866l-0.924 0.383c0.804 1.941 1.983 3.705 3.468 5.191l0.707-0.707zM2.142 21.74c-0.754-1.82-1.142-3.77-1.142-5.74h-1c0 2.101 0.414 4.182 1.218 6.123l0.924-0.383z"></path>
</symbol>
<symbol id="icon-person" viewBox="0 0 32 32">
<path fill="#fff" style="fill: var(--color4, #fff)" d="M0.127 30.45c-0.297-0.913-0.032-1.656 0.796-2.229 2.526-1.656 5.615-2.887 9.267-3.694-1.783-2.229-3.046-4.936-3.79-8.12-0.212-1.168-0.329-2.463-0.35-3.885s0.223-3.004 0.732-4.745c0.51-1.741 1.21-3.206 2.102-4.395 1.783-2.229 4.15-3.344 7.101-3.344s5.307 1.115 7.069 3.344c0.913 1.21 1.624 2.675 2.134 4.395s0.743 3.301 0.701 4.745c-0.043 1.444-0.159 2.739-0.35 3.885-0.743 3.184-2.006 5.891-3.79 8.12 3.652 0.807 6.74 2.038 9.267 3.694 0.828 0.573 1.104 1.327 0.828 2.261s-0.923 1.401-1.942 1.401h-27.864c-0.446 0-0.849-0.138-1.21-0.414s-0.594-0.616-0.701-1.019zM2.038 29.909h27.864c-2.314-1.55-5.148-2.696-8.503-3.439l-2.516-0.509c-0.955 0.637-1.921 0.955-2.898 0.955s-1.953-0.318-2.93-0.955l-2.484 0.509c-3.397 0.743-6.242 1.89-8.534 3.439zM8.184 10.739c-0.276 2.187-0.106 4.394 0.51 6.624s1.635 4.204 3.057 5.923l0.318 0.446c1.189 1.38 2.495 2.070 3.917 2.070s2.728-0.69 3.917-2.070l0.287-0.446c1.422-1.741 2.441-3.715 3.057-5.923s0.785-4.416 0.509-6.624c-0.297-2.399-1.104-4.448-2.42-6.146s-3.1-2.548-5.35-2.548c-2.25 0-4.034 0.849-5.35 2.548s-2.134 3.747-2.452 6.146z"></path>
</symbol>
<symbol id="icon-download" viewBox="0 0 39 32">
<path fill="#fff" style="fill: var(--color4, #fff)" d="M24.423 22.813l-3.672 3.611v-10.361c0-0.942-0.638-1.57-1.596-1.57s-1.596 0.628-1.596 1.57v10.361l-3.671-3.611c-0.639-0.628-1.596-0.628-2.235 0s-0.639 1.57 0 2.198l6.385 6.279c0.16 0.157 0.319 0.314 0.479 0.314 0.16 0.157 0.479 0.157 0.638 0.157s0.479 0 0.639-0.157c0.16-0.157 0.319-0.157 0.479-0.314l6.385-6.279c0.639-0.628 0.639-1.57 0-2.198s-1.596-0.628-2.235 0h-0zM36.555 13.708c-1.756-2.355-4.629-3.925-7.822-3.925h-0.798c-2.394-6.907-9.897-10.832-17.080-8.948-3.831 0.942-6.864 3.14-8.939 6.436-1.916 3.297-2.554 7.064-1.596 10.675 0.639 2.198 1.596 4.238 3.193 5.808 0.639 0.628 1.596 0.785 2.235 0.157s0.798-1.57 0.16-2.198c-1.117-1.256-2.075-2.826-2.394-4.553-0.798-2.826-0.319-5.808 1.277-8.32s3.991-4.395 6.864-5.023c5.906-1.57 12.132 2.041 13.569 7.849 0.16 0.628 0.798 1.256 1.596 1.256h1.916c2.075 0 3.991 0.942 5.268 2.669 0.958 1.413 1.437 2.983 1.117 4.709s-1.277 3.14-2.554 4.082c-0.798 0.471-0.958 1.413-0.319 2.198 0.319 0.471 0.798 0.628 1.277 0.628 0.319 0 0.638-0.157 0.958-0.314 2.075-1.413 3.512-3.611 3.991-6.122s-0.479-4.866-1.916-7.064v0z"></path>
</symbol>
<symbol id="icon-check-mark" viewBox="0 0 32 32">
<path fill="#2c1258" style="fill: var(--color3, #2c1258)" d="M31.314 0.727c-0.708-0.969-1.769-0.969-2.477 0l-18.222 24.956-7.607-10.419c-0.708-0.969-1.769-0.969-2.477 0s-0.708 2.423 0 3.392l8.846 12.115c0.354 0.485 0.708 0.727 1.238 0.727s0.885-0.242 1.238-0.727l19.461-26.652c0.707-0.969 0.707-2.423 0-3.392z"></path>
</symbol>
<symbol id="icon-arrow-up" viewBox="0 0 32 32">
<path fill="#fff" style="fill: var(--color4, #fff)" d="M16-0l-16 26.667 3.2 5.333 12.8-21.333 12.8 21.333 3.2-5.333-16-26.667z"></path>
</symbol>
<symbol id="icon-logo" viewBox="0 0 177 32">
<path d="M168.798 5.966l3.53-3.688 3.529 3.688 1.084-1.135-4.613-4.831-4.613 4.831 1.084 1.135z"></path>
<path d="M12.019 28.561c5.66 0 9.421-3.472 9.421-7.911 0-5.119-3.117-6.837-9.135-7.661-4.442-0.644-5.302-1.682-5.302-3.759 0-1.969 1.505-3.365 4.406-3.365 2.937 0 4.478 1.146 4.944 3.83h4.37c-0.501-4.904-3.797-7.41-9.314-7.41-5.338 0-8.92 3.15-8.92 7.338 0 4.797 2.902 6.658 9.027 7.482 4.155 0.68 5.338 1.575 5.338 3.938s-2.006 3.938-4.836 3.938c-4.335 0-5.373-2.148-5.696-4.725h-4.585c0.358 4.833 3.296 8.305 10.281 8.305zM27.485 28.203h16.622v-3.759h-11.857v-7.482h9.027v-3.58h-9.027v-7.016h11.248v-3.759h-16.013v25.595zM61.238 24.731c-4.657 0-8.060-3.615-8.060-9.2v-0.286c0-5.513 2.973-9.2 7.988-9.2s7.953 3.902 7.953 9.164v0.286c0 5.549-3.045 9.236-7.881 9.236zM61.166 28.561c7.773 0 12.896-5.62 12.896-13.102v-0.286c0-7.517-5.266-12.923-12.896-12.923-7.594 0-12.968 5.548-12.968 13.030v0.286c0 7.374 5.123 12.994 12.968 12.994zM80.097 28.203h4.764v-10.488h8.741v-3.687h-8.741v-7.625h11.105v-3.794h-15.869v25.595zM101.289 28.203h4.335v-27.384h-4.335v27.384zM120.722 25.196c-3.296 0-5.194-2.398-5.194-6.229v-0.286c0-3.866 1.97-6.193 5.194-6.193s5.158 2.363 5.158 6.229v0.251c0 3.83-1.934 6.229-5.158 6.229zM120.686 28.561c5.517 0 9.636-3.794 9.636-9.629v-0.286c0-5.727-4.12-9.558-9.6-9.558-5.517 0-9.636 3.866-9.636 9.665v0.286c0 5.692 4.084 9.522 9.6 9.522zM139.016 28.203h4.442l3.797-12.6 3.475 12.6h4.406l5.875-18.722h-4.227l-3.905 13.531-3.654-13.531h-3.618l-3.976 13.531-3.726-13.531h-4.621l5.732 18.722z"></path>
</symbol>
<symbol id="icon-pinterest" viewBox="0 0 23 32">
<path d="M2.708 11.422c0-1.372 0.176-2.664 0.528-3.875s0.838-2.275 1.459-3.189 1.333-1.703 2.138-2.366c0.805-0.663 1.668-1.166 2.59-1.509s1.869-0.503 2.842-0.48c1.475 0 2.85 0.423 4.124 1.269s2.305 2.080 3.093 3.704c0.788 1.623 1.182 3.452 1.182 5.487 0 1.235-0.084 2.435-0.252 3.601s-0.453 2.298-0.855 3.395c-0.402 1.097-0.872 2.046-1.408 2.846s-1.207 1.463-2.012 1.989c-0.805 0.526-1.693 0.766-2.666 0.72-0.637 0-1.266-0.206-1.886-0.617s-1.073-0.972-1.358-1.68c-0.084 0.503-0.21 1.223-0.377 2.161s-0.285 1.543-0.352 1.818c-0.067 0.274-0.159 0.732-0.277 1.372s-0.243 1.086-0.377 1.337-0.277 0.652-0.428 1.2c-0.151 0.549-0.369 1.052-0.654 1.509s-0.578 1.006-0.88 1.646l-0.176 0.103-0.126-0.206c-0.151-2.012-0.226-3.212-0.226-3.601 0-1.166 0.101-2.481 0.302-3.944s0.511-3.304 0.931-5.521 0.662-3.509 0.729-3.875c-0.302-0.823-0.453-1.898-0.453-3.224 0-1.075 0.243-2.069 0.729-2.984s1.107-1.383 1.861-1.406c0.57 0 1.014 0.263 1.333 0.789s0.478 1.177 0.478 1.955c0 0.846-0.201 2.058-0.604 3.635s-0.612 2.778-0.629 3.601c0 0.8 0.21 1.463 0.629 1.989s0.931 0.789 1.534 0.789c0.52 0 0.998-0.16 1.434-0.48s0.805-0.754 1.107-1.303c0.302-0.549 0.562-1.155 0.78-1.818s0.394-1.36 0.528-2.092c0.134-0.732 0.226-1.44 0.277-2.126s0.084-1.326 0.101-1.921c0-2.195-0.511-3.909-1.534-5.144s-2.364-1.852-4.024-1.852c-1.861 0-3.42 0.823-4.678 2.469s-1.886 3.738-1.886 6.276c0 0.572 0.059 1.12 0.176 1.646s0.243 0.937 0.377 1.235c0.134 0.297 0.26 0.594 0.377 0.892s0.176 0.492 0.176 0.583c0 0.343-0.067 0.8-0.201 1.372s-0.31 0.857-0.528 0.857c-0.017 0-0.092-0.011-0.226-0.034-0.486-0.206-0.914-0.56-1.283-1.063s-0.654-1.109-0.855-1.818c-0.201-0.709-0.352-1.395-0.453-2.058s-0.151-1.349-0.151-2.058z"></path>
</symbol>
<symbol id="icon-linkedin" viewBox="0 0 34 32">
<path d="M7.802 10.549v20.545h-7.362v-20.545h7.362zM8.282 4.196c0 1.015-0.387 1.858-1.16 2.526s-1.774 1.003-3.001 1.003h-0.040c-1.227 0-2.214-0.334-2.961-1.003s-1.12-1.511-1.12-2.526c0-1.015 0.387-1.858 1.16-2.526s1.774-1.003 3.001-1.003c1.227 0 2.214 0.334 2.961 1.003s1.134 1.511 1.16 2.526zM34.288 19.317v11.777h-7.322v-10.997c0-1.461-0.307-2.601-0.92-3.418s-1.56-1.226-2.841-1.226c-0.934 0-1.707 0.235-2.321 0.706s-1.094 1.065-1.44 1.783c-0.16 0.421-0.24 0.978-0.24 1.672v11.48h-7.362c0.027-5.523 0.040-9.994 0.040-13.412s0-5.461 0-6.13l-0.040-1.003h7.362v2.972h-0.040c0.293-0.446 0.6-0.83 0.92-1.152s0.733-0.681 1.24-1.077c0.507-0.396 1.16-0.694 1.96-0.892s1.654-0.31 2.561-0.334c2.534 0 4.574 0.78 6.121 2.341s2.32 3.864 2.32 6.91z"></path>
</symbol>
<symbol id="icon-twitter" viewBox="0 0 40 32">
<path d="M39.717 6.1c-1.114 1.301-2.47 2.422-4.066 3.362 0 0.193 0 0.47 0 0.831 0 1.759-0.317 3.506-0.949 5.241s-1.597 3.41-2.892 5.024c-1.295 1.615-2.847 3.024-4.654 4.229s-3.976 2.193-6.507 2.964c-2.53 0.771-5.256 1.133-8.178 1.085-4.549 0-8.706-0.976-12.471-2.928 0.572 0.048 1.22 0.072 1.943 0.072 3.796 0 7.169-0.928 10.121-2.783-1.777-0.024-3.359-0.458-4.744-1.301s-2.35-1.916-2.892-3.217c0.572 0.072 1.084 0.108 1.536 0.108 0.723 0 1.446-0.072 2.169-0.217-1.898-0.313-3.464-1.060-4.699-2.241s-1.853-2.566-1.853-4.157v-0.072c1.145 0.506 2.38 0.783 3.705 0.831-1.115-0.602-2.003-1.374-2.666-2.313s-0.994-1.976-0.994-3.109c0-1.181 0.377-2.277 1.13-3.289 2.048 2 4.518 3.603 7.41 4.808s6.025 1.868 9.398 1.988c-0.151-0.506-0.226-1-0.226-1.482 0-1.807 0.798-3.338 2.395-4.591s3.509-1.892 5.738-1.916c2.38 0 4.368 0.687 5.965 2.060 1.838-0.289 3.57-0.819 5.196-1.591-0.633 1.542-1.838 2.747-3.615 3.615 1.566-0.145 3.133-0.482 4.699-1.012z"></path>
</symbol>
<symbol id="icon-facebook" viewBox="0 0 17 32">
<path d="M12.769 0.24v5.041h-1.58c-0.581 0-0.974 0.229-1.18 0.686s-0.309 1.143-0.309 2.058v3.635h2.978l-0.399 5.659h-2.578v14.541h-3.105v-14.541h-2.578v-5.659h2.578v-4.184c0-2.378 0.351-4.218 1.053-5.521s1.64-1.955 2.814-1.955c0.993 0 1.761 0.080 2.306 0.24z"></path>
</symbol>
<symbol id="icon-mail" viewBox="0 0 32 32">
<path d="M0 21.024c-0.042-0.382 0.106-0.679 0.446-0.892l29.838-19.903c0.17-0.127 0.361-0.191 0.573-0.191s0.403 0.064 0.573 0.191c0.318 0.212 0.456 0.541 0.414 0.987l-4.968 29.87c-0.085 0.276-0.255 0.499-0.51 0.669-0.149 0.085-0.308 0.127-0.478 0.127-0.127 0-0.255-0.021-0.382-0.064l-9.649-3.853-2.038 3.407c-0.212 0.34-0.51 0.51-0.892 0.51s-0.669-0.17-0.86-0.51l-3.662-6.401-7.77-3.089c-0.382-0.17-0.594-0.456-0.637-0.86zM3.121 20.674l6.019 2.452c0.042 0.042 0.096 0.074 0.159 0.096l0.096 0.064 16.782-17.96-23.055 15.349zM10.158 23.986l2.77 4.84 16.050-25.062-18.82 20.221zM15.986 25.96c0.255 0.042 0.467 0.085 0.637 0.127l8.439 3.439 3.98-23.82-13.056 20.253z"></path>
</symbol>
<symbol id="icon-phone" viewBox="0 0 32 32">
<path d="M27.919 18.808c-1.286-0.145-2.572-0.434-3.715-0.869-1.572-0.579-3.287-0.145-4.573 1.013l-1 1.013c-2.572-1.737-4.858-3.908-6.573-6.658l1-1.013c1.143-1.158 1.572-3.040 1-4.632-0.429-1.158-0.714-2.461-0.857-3.763-0.286-2.171-2.143-3.763-4.287-3.763h-4.287c-0.143 0-0.286 0-0.429 0-1.143 0.145-2.143 0.724-2.858 1.592s-1 2.026-1 3.184c0.429 4.632 2.143 9.264 4.572 13.172 2.286 3.619 5.43 6.803 9.002 9.119 3.858 2.606 8.431 4.198 13.003 4.632 0.143 0 0.286 0 0.429 0 1.143 0 2.286-0.434 3.001-1.303s1.286-1.882 1.286-3.040v-4.343c0-2.171-1.572-4.053-3.715-4.342v-0zM28.777 23.151v4.343c0 0.434-0.143 0.724-0.429 1.013s-0.572 0.434-1.143 0.434c-4.144-0.434-8.145-1.882-11.717-4.198-3.287-2.026-6.001-4.921-8.145-8.251-2.286-3.619-3.715-7.672-4.144-11.869 0-0.434 0.143-0.724 0.286-1.013 0.286-0.289 0.714-0.579 1.143-0.579h4.287c0.714 0 1.286 0.579 1.429 1.303 0.143 1.447 0.572 3.040 1.143 4.342 0.143 0.579 0 1.158-0.286 1.592l-1.858 1.737c-0.429 0.434-0.572 1.158-0.286 1.737 2.143 3.908 5.287 7.093 9.145 9.264 0.572 0.29 1.286 0.29 1.715-0.289l1.858-1.882c0.429-0.434 1-0.579 1.572-0.289 1.429 0.579 2.858 0.869 4.287 1.158 0.572 0.145 1.143 0.724 1.143 1.448z"></path>
</symbol>
</defs>
</svg>
